<svg version="1.2" baseProfile="tiny-ps" xmlns="http://www.w3.org/2000/svg" viewBox="0 0 397 350" width="397" height="350">
	<title>1-08-ai</title>
	<defs>
		<linearGradient id="grd1" gradientUnits="userSpaceOnUse"  x1="1.694" y1="2.468" x2="393.724" y2="2.468">
			<stop offset="0" stop-color="#005782"  />
			<stop offset="1" stop-color="#00b9f2"  />
		</linearGradient>
	</defs>
	<style>
		tspan { white-space:pre }
		.shp0 { fill: url(#grd1) } 
	</style>
	<g id="1">
		<path id="&lt;Path&gt;" class="shp0" d="M330.18 344.95C322.57 343.54 314.72 341.41 307.48 338.22C280.82 326.46 262.79 317.83 263.57 301.37C264.09 290.39 266.71 271.05 271.41 243.35C277.68 248.57 283.43 245.17 288.66 233.15C296.5 215.12 299.64 186.89 285.52 193.17C300.13 128.87 292.8 95.16 263.55 92.02C267.22 74.25 247.1 64.84 203.2 63.8C159.29 64.84 139.17 74.25 142.85 92.02C113.59 95.16 106.27 128.87 120.87 193.17C106.76 186.89 109.89 215.12 117.73 233.15C122.96 245.17 128.71 248.57 134.98 243.35C139.69 271.05 142.3 290.39 142.82 301.37C143.61 317.83 125.58 326.46 98.92 338.22C88.63 342.75 77.1 345.15 66.82 346.38C26.85 310.5 1.69 258.43 1.69 200.48C1.69 92.23 89.45 4.47 197.71 4.47C305.96 4.47 393.72 92.23 393.72 200.48C393.72 257.66 369.23 309.12 330.18 344.95Z" />
	</g>
</svg>